<svg xmlns="http://www.w3.org/2000/svg" width="180" height="180" viewBox="0 0 180 180" role="img" aria-label="Wallet icon">
  <defs>
    <linearGradient id="bg" x1="0" y1="0" x2="1" y2="1">
      <stop offset="0" stop-color="#0ea5e9" />
      <stop offset="1" stop-color="#0d9488" />
    </linearGradient>
  </defs>
  <rect width="180" height="180" rx="36" fill="url(#bg)" />
  <path
    fill="#f8fafc"
    d="M48 60c-6.627 0-12 5.373-12 12v48c0 6.627 5.373 12 12 12h72c7.732 0 14-6.268 14-14V86c0-7.732-6.268-14-14-14H84.5l10.933-8.2a6 6 0 0 0 .567-9.126l-.4-.368A10 10 0 0 0 87.993 52H60a12 12 0 0 0-12 12Zm82 34a6 6 0 1 1 0 12 6 6 0 0 1 0-12Z"
  />
</svg>
